<?xml version="1.0" encoding="utf-8"?>
<!-- Generator: Adobe Illustrator 22.1.0, SVG Export Plug-In . SVG Version: 6.00 Build 0)  -->
<svg version="1.1" id="圖層_1" xmlns="http://www.w3.org/2000/svg" xmlns:xlink="http://www.w3.org/1999/xlink" x="0px" y="0px"
	 viewBox="0 0 426.9 148" style="enable-background:new 0 0 426.9 148;" xml:space="preserve">
<style type="text/css">
	.st0{fill:#FFFFFF;}
</style>
<g>
	<path class="st0" d="M69.8,38.5c-2.6-3.1-6.6-5-11.4-5c-10.1,0-20.3,8.2-22.6,18.4L25,98.7c-2.3,10.1,4,18.4,14.1,18.4H42l1.3-5.8
		h-2.9c-6.9,0-11.3-5.6-9.7-12.6l10.8-46.8C43.2,45,50.1,39.3,57,39.3c6.9,0,11.3,5.6,9.7,12.6l-11.5,49.7l-6.5,28
		c-1.6,6.9-8.5,12.6-15.5,12.6c-6.9,0-11.3-5.6-9.7-12.6l0.7-2.9h-5.8l-0.7,2.9c-2.3,10.1,4,18.4,14.1,18.4s20.3-8.2,22.6-18.4
		l6.5-28l11.5-49.7l4.2-18.4h-5.8L69.8,38.5z"/>
	<g>
		<rect x="-19.3" y="76.2" transform="matrix(0.2246 -0.9745 0.9745 0.2246 -69.9584 65.5617)" class="st0" width="51" height="1"/>
	</g>
	<g>
		
			<rect x="395.2" y="76.2" transform="matrix(0.2246 -0.9745 0.9745 0.2246 251.4438 469.4593)" class="st0" width="51" height="1"/>
	</g>
	<path class="st0" d="M175.6,129.6c-1.6,6.9-8.5,12.6-15.5,12.6c-6.9,0-11.3-5.6-9.7-12.6l0.7-2.9h-5.8l-0.7,2.9
		c-2.3,10.1,4,18.4,14.1,18.4s20.3-8.2,22.6-18.4l22.2-96.1h-5.8L175.6,129.6z"/>
	<path class="st0" d="M165.9,117h2.9l1.3-5.8h-2.9c-6.9,0-11.3-5.6-9.7-12.6l15-65.1h-5.8l-15,65.1C149.4,108.8,155.8,117,165.9,117
		z"/>
	<path class="st0" d="M329,129.6c-1.6,6.9-8.5,12.6-15.5,12.6s-11.3-5.6-9.7-12.6l0.7-2.9h-5.8l-0.7,2.9c-2.3,10.1,4,18.4,14.1,18.4
		c10.1,0,20.3-8.2,22.6-18.4L357,33.5h-5.8L329,129.6z"/>
	<path class="st0" d="M319.3,117h2.9l1.3-5.8h-2.9c-6.9,0-11.3-5.6-9.7-12.6l15-65.1h-5.8l-15,65.1C302.9,108.8,309.2,117,319.3,117
		z"/>
	<path class="st0" d="M95.7,38.5l1.2-5H91l-4.2,18.4l-0.7,2.9l-14.3,61.9h5.8l14.3-61.9l0.7-2.9c1.6-6.9,8.5-12.6,15.5-12.6h2.9
		l1.3-5.8h-2.9C104.5,33.5,99.7,35.4,95.7,38.5z"/>
	<path class="st0" d="M287.6,33.5h-15.1l-1.3,5.8h15.1c6.9,0,11.3,5.6,9.7,12.6l-6.5,28l-3.6,15.5l-0.7,2.9
		c-1.6,6.9-8.5,12.6-15.5,12.6s-11.3-5.6-9.7-12.6l3.6-15.5c1.6-6.9,8.5-12.6,15.5-12.6h2.9l1.3-5.8h-2.9
		c-10.1,0-20.3,8.2-22.6,18.4l-3.6,15.5c-2.3,10.1,4,18.4,14.1,18.4c4.9,0,9.7-1.9,13.7-5l-1.2,5h5.8l3.6-15.5l0.7-2.9l0.7-2.9
		l3.6-15.5l6.5-28C304.1,41.8,297.7,33.5,287.6,33.5z"/>
	<path class="st0" d="M133.8,33.5h-2.9l-1.3,5.8h2.9c6.9,0,11.3,5.6,9.7,12.6l-6.5,28l-3.6,15.5l-0.7,2.9
		c-1.6,6.9-8.5,12.6-15.5,12.6s-11.3-5.6-9.7-12.6l3.6-15.5c1.6-6.9,8.5-12.6,15.5-12.6h2.9l1.3-5.8h-2.9
		c-10.1,0-20.3,8.2-22.6,18.4l-3.6,15.5c-2.3,10.1,4,18.4,14.1,18.4c4.9,0,9.7-1.9,13.7-5l-1.2,5h5.8l3.6-15.5l0.7-2.9l0.7-2.9
		l3.6-15.5l6.5-28C150.3,41.8,143.9,33.5,133.8,33.5z"/>
	<path class="st0" d="M248.6,36c-2.6-3.1-6.6-5-11.4-5c-10.1,0-20.3,8.2-22.6,18.4l-11.3,49c-2.3,10.1,4,18.4,14.1,18.4h2.9l1.3-5.8
		h-2.9c-6.9,0-11.3-5.6-9.7-12.6l11.3-49c1.6-6.9,8.5-12.6,15.5-12.6s11.3,5.6,9.7,12.6l-12,51.9l-3.6,15.5h5.8l3.6-15.5l12-51.9
		L262.7,0h-5.8L248.6,36z"/>
	<path class="st0" d="M403.1,54.8l0.7-2.9c2.3-10.1-4-18.4-14.1-18.4c-4.9,0-10,1.9-14.2,5.4c-8.8,7.1-11.5,18.8-6,25.9l16.2,24.5
		l0.1,0.1c3.8,4.9,1.9,12.9-4.1,17.8c-2.9,2.4-6.4,3.7-9.7,3.7c-6.9,0-11.3-5.6-9.7-12.6l0.7-2.9H357l-0.7,2.9
		c-2.3,10.1,4,18.4,14.1,18.4c4.9,0,10-1.9,14.2-5.4c8.8-7.1,11.5-18.8,6-25.9l-16.2-24.5l-0.1-0.1c-3.8-4.9-1.9-12.9,4.1-17.8
		c2.9-2.4,6.4-3.7,9.7-3.7c6.9,0,11.3,5.6,9.7,12.6l-0.7,2.9H403.1z"/>
</g>
</svg>
